<?xml version="1.0" encoding="utf-8"?>
<!-- Generator: Adobe Illustrator 22.0.1, SVG Export Plug-In . SVG Version: 6.00 Build 0)  -->
<svg version="1.1"
	 id="svg2" inkscape:version="0.91 r13725" xmlns:cc="http://creativecommons.org/ns#" xmlns:dc="http://purl.org/dc/elements/1.1/" xmlns:inkscape="http://www.inkscape.org/namespaces/inkscape" xmlns:ns1="http://sozi.baierouge.fr" xmlns:rdf="http://www.w3.org/1999/02/22-rdf-syntax-ns#" xmlns:sodipodi="http://sodipodi.sourceforge.net/DTD/sodipodi-0.dtd"
	 xmlns="http://www.w3.org/2000/svg" xmlns:xlink="http://www.w3.org/1999/xlink" x="0px" y="0px" viewBox="0 0 44.3 26.6"
	 style="enable-background:new 0 0 44.3 26.6;" xml:space="preserve">
<style type="text/css">
	.st0{fill:#61BE53;}
	.st1{fill:#3C8C19;}
	.st2{fill:#7CD06E;}
	.st3{fill:#619353;}
</style>
<g id="g10" transform="matrix(1.25 0 0 -1.25 0 26.569)">
	<g id="g12">
		<path id="path14" inkscape:connector-curvature="0" class="st0" d="M30,17.1c1.4-1.2,2.2-1.9,2.4-2.1c1.8-1.6,2.7-3.4,2.8-5.6
			c0-0.1-0.1-0.4-0.4-0.9c-1.2-2-2.9-3.2-5.2-3.6c1.4,1,2.5,1.7,3.1,2.3c2,1.7,2,3.5,0.2,5.4c-1.6,1.7-3.2,3-5,3.9
			c-0.3,0.2-0.5,0.4-0.5,0.6c-0.4,1-0.7,1.9-0.9,2.7C27.7,19.1,28.8,18.2,30,17.1z"/>
		<path id="path16" inkscape:connector-curvature="0" class="st1" d="M29.4,9c1.6-0.4,2.5-0.6,2.8-0.6c0.3,0,0.5,0.1,0.6,0.4
			c0.2,0.3-0.5,0.6-2,0.9c-1.1,0.3-3.2,1.1-6.3,2.4c-2.8,1.2-4.9,2.7-6.2,4.4c0.5-0.1,0.9,0,1.3,0.3c0.3,0.2,0.4,0.3,0.6,0.4
			l0.3,0.2c0,0.1,0.2,0.3,0.5,0.5l0.4,0.3c0.5,0.7,1.2,1.3,2,1.7c0,0.2-0.1,0.3-0.3,0.3c-1.2,0.1-2.4-0.2-3.6-0.7l-1.7-0.7
			c-0.2-0.1-0.3-0.2-0.5-0.4c0,0,0-0.1-0.1-0.1v-0.1c0-0.2,0-0.3-0.1-0.3c-0.2-0.6-0.7-0.9-1.4-1c-0.3-0.1-0.7-0.2-1.4-0.2
			c-0.2,0-0.5,0-0.8,0.1l-0.2,0.1L6,14.2c0.6-0.4,2.1-0.3,4.5,0.3c2.4,0.6,3.7,1,4,1.1l0.8,0.4c3.2-1.8,6.2-3.5,9.1-4.9
			C25.7,10.3,27.4,9.6,29.4,9z M26.6,19.8c0.2-0.8,0.5-1.7,0.9-2.7c0-0.2,0.2-0.4,0.5-0.6c1.8-0.9,3.4-2.2,5-3.9
			c1.8-1.9,1.8-3.7-0.2-5.4c-0.6-0.5-1.6-1.3-3.1-2.3l-1.5-0.1c-0.6,0-1.5,0-2.7,0.1c-4,0.4-7.7,1.8-11.1,3.9
			c-1.7-0.4-3.5-0.6-5.3-0.4c-2.3,0.3-4.2,1-5.8,2.3c-1.3,0.9-1.5,2-0.6,3.2c1.9,0.5,3.6,1.3,5.2,2.3c0.8,0.5,2,0.9,3.7,1.1
			c1.8,0.2,2.9,0.6,3.3,1c0.5,0.4,1.2,0.9,2.3,1.5c0.9,0.5,2.4,0.9,4.6,1.2C23.4,21.4,25.1,21,26.6,19.8z"/>
		<path id="path18" inkscape:connector-curvature="0" class="st2" d="M30.8,9.8c1.6-0.4,2.3-0.7,2-0.9c-0.1-0.3-0.3-0.4-0.6-0.4
			C31.9,8.3,31,8.5,29.4,9c-2,0.6-3.7,1.3-5,2c-2.9,1.4-6,3.1-9.1,4.9l-0.8-0.4c-0.3-0.1-1.6-0.5-4-1.1c-2.3-0.6-3.8-0.7-4.5-0.3
			l7.2,2.9l0.2-0.1c0.3-0.1,0.6-0.1,0.8-0.1c0.7,0.1,1.1,0.2,1.4,0.2c0.7,0.1,1.1,0.4,1.4,1c0,0,0.1,0.1,0.1,0.3v0.1
			c0.1,0,0.1,0,0.1,0.1c0.2,0.2,0.3,0.3,0.5,0.4l1.7,0.7c1.2,0.5,2.4,0.8,3.6,0.7c0.2,0,0.3-0.1,0.3-0.3c-0.8-0.4-1.5-1-2-1.7L21,18
			c-0.3-0.3-0.5-0.5-0.5-0.5l-0.3-0.2c-0.1-0.1-0.3-0.3-0.6-0.4c-0.4-0.3-0.9-0.4-1.3-0.3c1.3-1.7,3.4-3.2,6.2-4.4
			C27.6,10.8,29.7,10,30.8,9.8z"/>
		<path id="path20" inkscape:connector-curvature="0" class="st0" d="M3.3,10.8c1.6-1.3,3.5-2,5.8-2.3c1.8-0.2,3.6-0.1,5.3,0.4
			c3.4-2.2,7-3.5,11.1-3.9c-0.9,0-2.1,0.1-3.6,0.3c-2.2,0.2-4.2,0.4-6,0.7l-5.6,1C8.3,7.4,6.6,7.8,4.9,8.3C2.8,8.9,1.3,10,0.4,11.9
			V12c0.1,1.2,0.9,1.8,2.3,2C1.7,12.8,2,11.7,3.3,10.8z"/>
		<path id="path22" inkscape:connector-curvature="0" class="st3" d="M25.5,5c1.2-0.1,2.1-0.1,2.7-0.1L29.7,5
			c2.3,0.4,4.1,1.6,5.2,3.6c0.2,0.4,0.4,0.7,0.4,0.9c0.2-1.8,0.1-3.6-0.4-5.6c-0.5-1.7-1.6-2.8-3.3-3.3C29.7,0.1,27.9,0,26.1,0
			c-1.4,0-3.5,0.1-6.2,0.1c-1.9-0.1-3.9,0-5.9,0.3c-2,0.3-4.1,0.9-6.2,1.7l-6,2.4C1.3,4.7,1,5.1,0.7,5.7c-0.8,2-1,4-0.4,6.2
			c0.9-1.8,2.4-3,4.6-3.6C6.6,7.8,8.3,7.4,10.2,7l5.6-1c1.8-0.3,3.8-0.5,6-0.7C23.4,5.1,24.6,5,25.5,5z"/>
	</g>
</g>
</svg>
